PathFileType	4	(X/Y/Z)	C:\Users\Basilio\Documents\Thesis Gigler\squatting_fais\c3dfiles\077\SLS_back_pre1\markers_experimental.trc
DataRate	CameraRate	NumFrames	NumMarkers	Units	OrigDataRate	OrigDataStartFrame	OrigNumFrames
200.000000	200.000000	4	60	mm	200.000000	397	1588
Frame#	Time	FHD			RBHD			C7			T10			CLAV			LSHO			LUUPA			LMUPA			LDUPA			LLEP			LMEP			LRAD			LUL			LRFIN			RSHO			RUPA1			RMUPA			RDUPA			RLEP			RMEP			RRAD			RUL			RUFIN			LASI			RASI			USACR			LSACR			RSACR			LTHI1			LTHI2			LTHI3			LTHI4			LLFC			LMFC			LTIB1			LTIB2			LTIB3			LTIB4			LLMAL			LHEE			LMT1			LMT2			LMT5			RTHI			RTHI2			RTHI3			RTHI4			RLFC			RMFC			RTIB1			RTIB2			RTIB3			RTIB4			RLMAL			RMMAL			RHEE			RMT1			RMT2			RMT5			LBHD			
		X1	Y1	Z1	X2	Y2	Z2	X3	Y3	Z3	X4	Y4	Z4	X5	Y5	Z5	X6	Y6	Z6	X7	Y7	Z7	X8	Y8	Z8	X9	Y9	Z9	X10	Y10	Z10	X11	Y11	Z11	X12	Y12	Z12	X13	Y13	Z13	X14	Y14	Z14	X15	Y15	Z15	X16	Y16	Z16	X17	Y17	Z17	X18	Y18	Z18	X19	Y19	Z19	X20	Y20	Z20	X21	Y21	Z21	X22	Y22	Z22	X23	Y23	Z23	X24	Y24	Z24	X25	Y25	Z25	X26	Y26	Z26	X27	Y27	Z27	X28	Y28	Z28	X29	Y29	Z29	X30	Y30	Z30	X31	Y31	Z31	X32	Y32	Z32	X33	Y33	Z33	X34	Y34	Z34	X35	Y35	Z35	X36	Y36	Z36	X37	Y37	Z37	X38	Y38	Z38	X39	Y39	Z39	X40	Y40	Z40	X41	Y41	Z41	X42	Y42	Z42	X43	Y43	Z43	X44	Y44	Z44	X45	Y45	Z45	X46	Y46	Z46	X47	Y47	Z47	X48	Y48	Z48	X49	Y49	Z49	X50	Y50	Z50	X51	Y51	Z51	X52	Y52	Z52	X53	Y53	Z53	X54	Y54	Z54	X55	Y55	Z55	X56	Y56	Z56	X57	Y57	Z57	X58	Y58	Z58	X59	Y59	Z59	X60	Y60	Z60	

398	1.985	-215.8387756347657	1861.090576171875	-1100.100708007813	-364.2394714355469	1750.709350585938	-1023.056091308594	-407.5616455078126	1604.122802734375	-1106.063842773438	-405.8526306152345	1271.286987304688	-1082.954956054688	-242.8687591552735	1562.461303710938	-1097.376586914063	-261.8164062500001	1588.880249023438	-1277.12939453125	-90.63621520996095	1503.958374023438	-1370.12939453125	-57.90244293212892	1533.156372070313	-1346.922485351563	-23.22953033447266	1489.79248046875	-1372.700317382813	41.62065505981446	1489.220336914063	-1368.00244140625	37.72220611572266	1425.034301757813	-1329.588623046875	330.6649169921876	1502.096923828125	-1240.084838867188	336.4806213378907	1495.864990234375	-1320.571411132813	423.9081115722657	1526.960815429688	-1249.726928710938	-259.9315490722657	1596.69287109375	-929.950378417969	-104.080322265625	1551.548950195313	-821.6461181640627	-75.38975524902345	1574.964599609375	-854.2884521484377	-34.16158676147462	1546.321411132813	-818.2270507812502	31.77983093261719	1547.649658203125	-826.2280883789065	30.94357681274415	1472.060668945313	-851.269470214844	313.5698547363282	1537.853515625	-926.918884277344	326.5812683105469	1561.37353515625	-852.0693969726565	408.2965087890626	1563.472045898438	-934.0594482421877	-217.5093841552735	1053.944946289063	-1188.909423828125	-233.4750976562501	1105.929077148438	-910.809753417969	-418.5228881835939	1177.067626953125	-1070.977661132813	-424.1560668945314	1144.492431640625	-1097.074951171875	-432.8548889160157	1147.1875	-1041.754150390625	-286.0941162109376	843.0595703125002	-1224.1689453125	-256.9584045410157	764.7951660156251	-1214.135009765625	-208.2377166748047	767.2985839843751	-1209.901000976563	-285.3421630859376	714.7102661132814	-1193.909790039063	-256.7610778808594	569.2226562500001	-1158.676025390625	-254.2227783203126	557.8292846679689	-1025.022216796875	-248.2814941406251	350.4494323730469	-1066.908081054688	-279.1421508789063	302.1556091308594	-1134.557495117188	-249.6986236572266	299.4161376953126	-1097.390380859375	-268.3414916992188	227.1500091552735	-1058.994384765625	-340.6915893554688	111.7652587890625	-1098.08056640625	-398.7419433593751	81.9100799560547	-1044.314208984375	-188.5183868408203	54.19688796997072	-1024.734008789063	-183.4436950683594	59.09984970092775	-1067.624877929688	-313.0488586425782	127.7172775268555	-1013.30615234375	-180.2694091796875	821.4514770507815	-797.779235839844	-117.4064025878907	789.927429199219	-794.0286254882815	-88.42623138427736	803.7452392578127	-803.8026123046877	-114.833610534668	707.6957397460939	-794.5081176757815	-117.0493469238282	669.6510620117189	-793.2173461914065	-97.77266693115237	628.5291748046876	-918.1660156250002	-216.1158142089844	584.5396118164064	-817.5805664062502	-309.7940063476563	632.6408081054689	-797.678161621094	-302.3751831054688	590.1697998046876	-812.0237426757815	-340.9656677246094	572.4545898437501	-858.539978027344	-532.8004150390626	605.7572631835939	-837.486022949219	-508.4271545410157	575.5334472656251	-920.3790283203127	-579.6744384765626	656.1523437500001	-899.9803466796877	-543.0134887695314	433.9666442871095	-888.5010986328127	-547.0507202148439	436.2019958496095	-848.9293212890627	-577.0244750976564	452.0604553222657	-804.5227661132815	-357.7855224609376	1754.900024414063	-1169.4052734375	
399	1.99	-216.2712707519532	1861.482788085938	-1100.21240234375	-364.2357788085938	1750.62255859375	-1022.990600585938	-407.5300903320314	1603.9296875	-1106.146240234375	-405.7853088378907	1271.23583984375	-1082.989501953125	-242.6635284423829	1562.237548828125	-1097.36376953125	-261.7945251464844	1588.847900390625	-1277.106079101563	-90.67407989501955	1504.114379882813	-1370.214965820313	-57.83831024169923	1533.400024414063	-1347.053466796875	-23.28690719604493	1490.122192382813	-1372.966918945313	41.59476852416993	1489.796264648438	-1368.331909179688	37.86388778686524	1425.500244140625	-1329.9462890625	330.8800659179688	1502.5390625	-1240.54443359375	337.0017395019532	1496.465698242188	-1321.055908203125	424.285369873047	1527.187622070313	-1250.768310546875	-259.9290771484376	1596.578491210938	-929.9197998046877	-104.1338119506836	1551.342407226563	-821.5838623046877	-75.40724182128908	1574.814208984375	-854.252868652344	-34.19881820678712	1546.169799804688	-818.1427001953127	31.8036289215088	1547.468017578125	-826.1563720703127	30.9407024383545	1471.86572265625	-851.285339355469	313.7091064453126	1537.950561523438	-926.9647216796877	326.5834960937501	1561.302001953125	-851.8042602539065	408.3033142089845	1563.487548828125	-933.769958496094	-217.3412780761719	1053.762451171875	-1188.886962890625	-233.4008178710938	1105.843383789063	-910.7890625000002	-418.3870544433595	1176.952026367188	-1071.10546875	-424.1144104003907	1144.420288085938	-1097.15478515625	-432.7747192382814	1147.12890625	-1041.844848632813	-286.0108337402344	843.102722167969	-1224.221069335938	-256.6746520996094	764.7022705078126	-1214.181762695313	-208.4455718994141	767.3486938476564	-1209.955200195313	-285.2616271972657	714.7627563476564	-1193.981567382813	-256.7979736328126	569.2821655273439	-1158.731079101563	-254.3074798583985	557.8367919921876	-1024.919799804688	-248.2111053466797	350.4752197265626	-1066.84716796875	-279.0879211425782	302.1700744628907	-1134.49072265625	-249.7045288085938	299.4019470214844	-1097.295043945313	-268.0847167968751	226.8329467773438	-1058.888916015625	-340.6175231933594	111.7452926635742	-1098.023803710938	-398.7145385742189	81.90160369873048	-1044.268310546875	-188.5144653320313	54.11836242675783	-1024.7255859375	-183.3450775146485	59.06516265869142	-1067.54541015625	-313.0494384765626	127.6946640014649	-1013.274841308594	-180.2411499023438	821.3354492187502	-797.8328247070315	-117.3755264282227	789.9041748046877	-793.9826660156252	-88.46835327148439	803.5535888671877	-803.8240966796877	-114.8005523681641	707.6927490234376	-794.5410156250002	-117.0235824584961	669.5563964843751	-793.263610839844	-97.67102050781253	628.4497680664064	-918.2397460937502	-216.0655364990235	584.4162597656251	-817.7653808593752	-309.7933044433594	632.4645996093751	-797.8953857421877	-302.3595886230469	590.0021362304689	-812.1494140625002	-340.8846130371094	572.4102172851564	-858.742614746094	-532.7151489257814	605.7473144531251	-837.7575683593752	-508.3153076171876	575.4801025390626	-920.585876464844	-579.5819702148439	656.1306762695314	-900.2725219726565	-543.0347900390626	433.946258544922	-888.7934570312502	-547.0133666992189	436.1344299316407	-849.232604980469	-577.0169067382814	451.9484252929689	-804.8466796875002	-357.7662048339844	1754.304443359375	-1169.34033203125	
400	1.995	-216.2619018554688	1861.436401367188	-1100.175537109375	-364.2656250000001	1750.509033203125	-1022.976501464844	-407.4864196777345	1603.868041992188	-1106.111206054688	-405.6783142089845	1271.21826171875	-1083.036743164063	-242.5123291015626	1562.13623046875	-1097.39404296875	-261.8211059570313	1588.83251953125	-1277.095947265625	-90.75319671630861	1504.278076171875	-1370.304809570313	-57.69562911987306	1533.639526367188	-1347.157958984375	-23.42505645751953	1490.525634765625	-1373.156616210938	41.68722152709962	1490.192138671875	-1368.512939453125	37.98405838012696	1425.880615234375	-1330.295654296875	331.1326599121094	1502.84912109375	-1241.07080078125	337.1984863281251	1496.740844726563	-1321.411376953125	424.8890991210939	1527.787841796875	-1251.442993164063	-259.8421936035157	1596.500610351563	-929.9058837890627	-104.0662307739258	1551.203369140625	-821.5379028320315	-75.3846893310547	1574.7353515625	-854.2363891601565	-34.17437744140626	1546.072631835938	-818.1231689453127	31.78379440307618	1547.326171875	-826.1083984375002	30.94723129272462	1471.6484375	-851.324645996094	313.7008972167969	1537.847290039063	-926.6232910156252	326.7002563476563	1561.086791992188	-851.621520996094	408.193084716797	1563.414184570313	-933.5913085937502	-217.3586425781251	1053.58984375	-1188.82421875	-233.4513244628907	1105.63525390625	-910.7556762695315	-418.2688903808595	1176.857421875	-1071.183349609375	-424.0234985351564	1144.343872070313	-1097.21240234375	-432.6893920898439	1147.002075195313	-1041.885864257813	-286.0914306640626	843.2174072265627	-1224.3017578125	-257.3388977050782	765.0166625976564	-1214.445434570313	-208.1955108642579	767.2628784179689	-1209.880493164063	-285.1853332519532	714.6875000000001	-1193.959350585938	-256.7476806640626	569.2463989257814	-1158.74951171875	-254.3381958007813	557.7218627929689	-1024.889770507813	-248.171127319336	350.4495849609376	-1066.841918945313	-279.0365905761719	302.0695495605469	-1134.472412109375	-249.6868896484376	299.3939819335938	-1097.297607421875	-268.2649536132813	227.062973022461	-1058.885498046875	-340.6677856445313	111.7192840576172	-1098.006225585938	-398.738739013672	81.8899612426758	-1044.2578125	-188.5193481445313	54.1273536682129	-1024.722412109375	-183.3589172363282	59.10051727294923	-1067.6103515625	-313.0442199707032	127.6914901733399	-1013.210815429688	-180.2728424072266	821.2649536132815	-797.8789062500002	-117.4035339355469	789.8189697265627	-794.0278930664065	-88.46279144287111	803.5029907226565	-803.8095703125002	-114.762924194336	707.5329589843751	-794.585632324219	-117.0095977783203	669.5377807617189	-793.3262329101565	-97.48455047607425	628.3931884765626	-918.2926025390627	-216.0331726074219	584.3346557617189	-817.8962402343752	-309.7257080078126	632.2548217773439	-798.1555786132815	-302.4090576171876	589.9907226562501	-812.3402099609377	-340.8039855957032	572.3297729492189	-858.8580322265627	-532.6681518554689	605.6952514648439	-837.971862792969	-508.2300109863282	575.4612426757814	-920.764343261719	-579.1939086914064	655.9850463867189	-900.4216308593752	-543.0466308593751	433.968719482422	-889.1399536132815	-547.0062255859376	436.1314086914064	-849.6085205078127	-577.0130004882814	451.9178466796876	-805.1394042968752	-357.8331909179688	1754.043579101563	-1169.364013671875	
401	2	-216.1257324218751	1860.5859375	-1099.924072265625	-364.3056030273438	1750.44775390625	-1022.962768554688	-407.4786376953126	1603.785522460938	-1106.148071289063	-405.6748046875001	1271.142333984375	-1083.079711914063	-242.2807617187501	1561.94580078125	-1097.369384765625	-261.8122558593751	1588.843872070313	-1277.148803710938	-90.73017883300783	1504.321655273438	-1370.347290039063	-57.82187271118165	1533.792236328125	-1347.401000976563	-23.57589149475098	1490.716064453125	-1373.311645507813	41.77798080444337	1490.462036132813	-1368.583618164063	38.20362091064454	1426.111694335938	-1330.3896484375	331.2843627929688	1503.20703125	-1241.57666015625	337.2548828125001	1497.248046875	-1321.900634765625	425.0146789550782	1528.036376953125	-1251.859252929688	-259.8313598632813	1596.3662109375	-929.9031982421877	-104.0082931518555	1551.116455078125	-821.4385375976565	-75.48690032958986	1574.408447265625	-854.2220458984377	-34.20489883422852	1545.889770507813	-817.853210449219	31.74540328979493	1546.933959960938	-826.1932373046877	30.99678802490235	1471.64794921875	-851.2940063476565	313.6459350585938	1537.901489257813	-926.4443359375002	326.7817077636719	1560.782470703125	-851.3691406250002	408.1906127929689	1563.33984375	-933.363464355469	-217.3263244628907	1053.377075195313	-1188.730102539063	-233.4788055419922	1105.482543945313	-910.7373657226565	-418.1210021972657	1176.81298828125	-1071.262939453125	-423.8829040527345	1144.307006835938	-1097.3349609375	-432.5526428222657	1147.009643554688	-1042.007202148438	-285.8591003417969	843.134704589844	-1224.321166992188	-256.3784790039063	764.7701416015626	-1214.24609375	-208.0362243652344	767.1892089843751	-1209.805053710938	-285.1485290527344	714.7415161132814	-1194.02197265625	-256.6196594238282	569.2442626953126	-1158.769653320313	-254.4524078369141	557.7365112304689	-1024.872680664063	-248.1394195556641	350.3800048828126	-1066.918579101563	-279.0002441406251	302.1672363281251	-1134.525756835938	-249.5979003906251	299.3392639160157	-1097.337768554688	-268.2312011718751	227.0845947265626	-1058.92333984375	-340.6555786132813	111.767333984375	-1098.013671875	-398.749481201172	81.84825134277345	-1044.259521484375	-188.5081481933594	54.14595413208009	-1024.697021484375	-183.3493041992188	59.1847267150879	-1067.627563476563	-313.0380554199219	127.6383819580078	-1013.222473144531	-180.241943359375	821.1954345703127	-798.0247802734377	-117.4136657714844	789.5809326171877	-794.2007446289065	-88.40771484375001	803.443054199219	-803.8106689453127	-114.7749710083008	707.4832763671876	-794.6507568359377	-116.9752578735352	669.4566650390626	-793.346374511719	-97.60777282714847	628.3287963867189	-918.2566528320315	-216.0030975341797	584.2446899414064	-818.045349121094	-309.6997985839844	632.2265625000001	-798.2260742187502	-302.3329467773438	589.9623413085939	-812.5239868164065	-340.7919311523438	572.2965698242189	-859.0347900390627	-532.6456909179689	605.6271362304689	-838.2021484375002	-508.1352844238282	575.4559326171876	-921.0067138671877	-579.0907592773439	655.9722290039064	-900.650573730469	-543.0593261718751	433.970184326172	-889.531677246094	-547.0126342773439	436.0843811035157	-849.950134277344	-576.9261474609376	451.8307495117189	-805.5237426757815	-357.9234924316407	1754.078491210938	-1169.31298828125	
